<svg width="20" height="20" viewBox="0 0 20 20" fill="none" xmlns="http://www.w3.org/2000/svg">
<mask id="mask0_213_720" style="mask-type:alpha" maskUnits="userSpaceOnUse" x="0" y="0" width="20" height="20">
<rect width="20" height="20" fill="#D9D9D9"/>
</mask>
<g mask="url(#mask0_213_720)">
<path d="M13.3333 11.6667C12.6389 11.6667 12.0486 11.4236 11.5625 10.9375C11.0764 10.4514 10.8333 9.86112 10.8333 9.16668C10.8333 8.47223 11.0764 7.88195 11.5625 7.39584C12.0486 6.90973 12.6389 6.66668 13.3333 6.66668C14.0278 6.66668 14.6181 6.90973 15.1042 7.39584C15.5903 7.88195 15.8333 8.47223 15.8333 9.16668C15.8333 9.86112 15.5903 10.4514 15.1042 10.9375C14.6181 11.4236 14.0278 11.6667 13.3333 11.6667ZM9.16667 16.6667C8.93056 16.6667 8.73264 16.5868 8.57292 16.4271C8.41319 16.2674 8.33333 16.0695 8.33333 15.8333V15.0833C8.33333 14.7917 8.40278 14.5139 8.54167 14.25C8.68056 13.9861 8.875 13.7778 9.125 13.625C9.75 13.25 10.4132 12.9688 11.1146 12.7813C11.816 12.5938 12.5556 12.5 13.3333 12.5C14.1111 12.5 14.8507 12.5938 15.5521 12.7813C16.2535 12.9688 16.9167 13.25 17.5417 13.625C17.7917 13.7778 17.9861 13.9861 18.125 14.25C18.2639 14.5139 18.3333 14.7917 18.3333 15.0833V15.8333C18.3333 16.0695 18.2535 16.2674 18.0938 16.4271C17.934 16.5868 17.7361 16.6667 17.5 16.6667H9.16667ZM10.125 15H16.5417C16.0556 14.7222 15.5417 14.5139 15 14.375C14.4583 14.2361 13.9028 14.1667 13.3333 14.1667C12.7639 14.1667 12.2083 14.2361 11.6667 14.375C11.125 14.5139 10.6111 14.7222 10.125 15ZM13.3333 10C13.5694 10 13.7674 9.92015 13.9271 9.76043C14.0868 9.60071 14.1667 9.40279 14.1667 9.16668C14.1667 8.93057 14.0868 8.73265 13.9271 8.57293C13.7674 8.4132 13.5694 8.33334 13.3333 8.33334C13.0972 8.33334 12.8993 8.4132 12.7396 8.57293C12.5799 8.73265 12.5 8.93057 12.5 9.16668C12.5 9.40279 12.5799 9.60071 12.7396 9.76043C12.8993 9.92015 13.0972 10 13.3333 10ZM8.33333 11.6667H3.33333C3.09722 11.6667 2.89931 11.5868 2.73958 11.4271C2.57986 11.2674 2.5 11.0695 2.5 10.8333C2.5 10.5972 2.57986 10.3993 2.73958 10.2396C2.89931 10.0799 3.09722 10 3.33333 10H8.33333C8.56944 10 8.76736 10.0799 8.92708 10.2396C9.08681 10.3993 9.16667 10.5972 9.16667 10.8333C9.16667 11.0695 9.08681 11.2674 8.92708 11.4271C8.76736 11.5868 8.56944 11.6667 8.33333 11.6667ZM11.6667 5.00001H3.33333C3.09722 5.00001 2.89931 4.92015 2.73958 4.76043C2.57986 4.6007 2.5 4.40279 2.5 4.16668C2.5 3.93057 2.57986 3.73265 2.73958 3.57293C2.89931 3.4132 3.09722 3.33334 3.33333 3.33334H11.6667C11.9028 3.33334 12.1007 3.4132 12.2604 3.57293C12.4201 3.73265 12.5 3.93057 12.5 4.16668C12.5 4.40279 12.4201 4.6007 12.2604 4.76043C12.1007 4.92015 11.9028 5.00001 11.6667 5.00001ZM9.25 8.33334H3.33333C3.09722 8.33334 2.89931 8.25348 2.73958 8.09376C2.57986 7.93404 2.5 7.73612 2.5 7.50001C2.5 7.2639 2.57986 7.06598 2.73958 6.90626C2.89931 6.74654 3.09722 6.66668 3.33333 6.66668H10C9.80556 6.90279 9.64931 7.15973 9.53125 7.43751C9.41319 7.71529 9.31945 8.0139 9.25 8.33334Z" fill="#0095FF"/>
</g>
</svg>
